<svg width="14" height="16" viewBox="0 0 14 16" fill="none" xmlns="http://www.w3.org/2000/svg">
<path d="M7.06718 7.1998C7.72992 7.1998 8.26718 6.66254 8.26718 5.9998C8.26718 5.33706 7.72992 4.7998 7.06718 4.7998C6.40444 4.7998 5.86719 5.33706 5.86719 5.9998C5.86719 6.66254 6.40444 7.1998 7.06718 7.1998Z" fill="#888E9B"/>
<path d="M7.06697 8.01168e-09C5.38062 -8.43115e-05 3.76239 0.665405 2.56398 1.85183C1.36557 3.03825 0.683856 4.64971 0.666992 6.33598C0.666992 10.72 6.30697 15.5999 6.54697 15.8079C6.69188 15.9319 6.87629 16 7.06697 16C7.25765 16 7.44206 15.9319 7.58697 15.8079C7.86697 15.5999 13.467 10.72 13.467 6.33598C13.4501 4.64971 12.7684 3.03825 11.57 1.85183C10.3716 0.665405 8.75332 -8.43115e-05 7.06697 8.01168e-09ZM7.06697 8.79997C6.51319 8.79997 5.97184 8.63575 5.51138 8.32809C5.05092 8.02042 4.69204 7.58312 4.48012 7.07149C4.26819 6.55986 4.21274 5.99687 4.32078 5.45373C4.42882 4.91058 4.69549 4.41167 5.08708 4.02009C5.47866 3.6285 5.97757 3.36183 6.52072 3.25379C7.06386 3.14575 7.62685 3.2012 8.13848 3.41313C8.65011 3.62505 9.08741 3.98393 9.39508 4.44439C9.70275 4.90485 9.86696 5.44619 9.86696 5.99998C9.86696 6.74258 9.57196 7.45477 9.04686 7.97987C8.52176 8.50497 7.80958 8.79997 7.06697 8.79997Z" fill="#007bff"/>
</svg>
